<svg xmlns="http://www.w3.org/2000/svg" xmlns:xlink="http://www.w3.org/1999/xlink" viewBox="0 0 228.13 294.3"><defs><style>.cls-1{isolation:isolate;}.cls-10,.cls-11,.cls-12,.cls-15,.cls-16,.cls-17,.cls-18,.cls-19,.cls-2,.cls-20,.cls-21,.cls-22,.cls-23,.cls-24,.cls-3,.cls-30,.cls-31,.cls-32,.cls-37,.cls-38,.cls-39,.cls-4,.cls-40,.cls-41,.cls-42,.cls-43,.cls-44,.cls-45,.cls-46,.cls-49,.cls-5,.cls-9{fill-rule:evenodd;}.cls-2{fill:url(#Áåçûìÿííûé_ãðàäèåíò_270);}.cls-3{fill:url(#Áåçûìÿííûé_ãðàäèåíò_312);}.cls-29,.cls-4,.cls-5,.cls-8{mix-blend-mode:multiply;}.cls-4{fill:url(#Áåçûìÿííûé_ãðàäèåíò_52);}.cls-14,.cls-5{opacity:0.5;}.cls-5{fill:url(#Áåçûìÿííûé_ãðàäèåíò_52-2);}.cls-14,.cls-25,.cls-26,.cls-27,.cls-28,.cls-30,.cls-6{mix-blend-mode:soft-light;}.cls-7{fill:#edeef7;}.cls-8{fill:url(#Áåçûìÿííûé_ãðàäèåíò_52-3);}.cls-31,.cls-32,.cls-36,.cls-49,.cls-9{mix-blend-mode:screen;}.cls-9{fill:url(#Áåçûìÿííûé_ãðàäèåíò_22);}.cls-10{fill:url(#Áåçûìÿííûé_ãðàäèåíò_270-2);}.cls-11{fill:url(#Áåçûìÿííûé_ãðàäèåíò_312-2);}.cls-12{fill:url(#Áåçûìÿííûé_ãðàäèåíò_322);}.cls-13{fill:url(#Áåçûìÿííûé_ãðàäèåíò_426);}.cls-14{fill:url(#Áåçûìÿííûé_ãðàäèåíò_215);}.cls-15{fill:url(#Áåçûìÿííûé_ãðàäèåíò_443);}.cls-16{fill:url(#Áåçûìÿííûé_ãðàäèåíò_339);}.cls-17{fill:url(#Áåçûìÿííûé_ãðàäèåíò_443-2);}.cls-18{fill:url(#Áåçûìÿííûé_ãðàäèåíò_260);}.cls-19{fill:url(#Áåçûìÿííûé_ãðàäèåíò_423);}.cls-20{fill:url(#Áåçûìÿííûé_ãðàäèåíò_339-2);}.cls-21{fill:url(#Áåçûìÿííûé_ãðàäèåíò_312-3);}.cls-22{fill:url(#Áåçûìÿííûé_ãðàäèåíò_155);}.cls-23{fill:url(#Áåçûìÿííûé_ãðàäèåíò_155-2);}.cls-24{fill:url(#Áåçûìÿííûé_ãðàäèåíò_155-3);}.cls-25{fill:url(#Áåçûìÿííûé_ãðàäèåíò_215-2);}.cls-26{fill:url(#Áåçûìÿííûé_ãðàäèåíò_215-3);}.cls-27{fill:url(#Áåçûìÿííûé_ãðàäèåíò_215-4);}.cls-28{fill:url(#Áåçûìÿííûé_ãðàäèåíò_215-5);}.cls-29{fill:url(#Áåçûìÿííûé_ãðàäèåíò_52-4);}.cls-30{fill:#f1b0b4;}.cls-31{fill:url(#Áåçûìÿííûé_ãðàäèåíò_259);}.cls-32{fill:url(#Áåçûìÿííûé_ãðàäèåíò_359);}.cls-33{fill:url(#Áåçûìÿííûé_ãðàäèåíò_426-2);}.cls-34{fill:url(#Áåçûìÿííûé_ãðàäèåíò_426-3);}.cls-35{fill:url(#Áåçûìÿííûé_ãðàäèåíò_426-4);}.cls-36{fill:url(#Áåçûìÿííûé_ãðàäèåíò_405);}.cls-37{fill:url(#Áåçûìÿííûé_ãðàäèåíò_334);}.cls-38{fill:url(#Áåçûìÿííûé_ãðàäèåíò_342);}.cls-39{fill:url(#Áåçûìÿííûé_ãðàäèåíò_280);}.cls-40{fill:url(#Áåçûìÿííûé_ãðàäèåíò_312-4);}.cls-41{fill:url(#Áåçûìÿííûé_ãðàäèåíò_334-2);}.cls-42{fill:url(#Áåçûìÿííûé_ãðàäèåíò_342-2);}.cls-43{fill:url(#Áåçûìÿííûé_ãðàäèåíò_290);}.cls-44{fill:url(#Áåçûìÿííûé_ãðàäèåíò_290-2);}.cls-45{fill:url(#Áåçûìÿííûé_ãðàäèåíò_334-3);}.cls-46{fill:url(#Áåçûìÿííûé_ãðàäèåíò_342-3);}.cls-47{fill:url(#Áåçûìÿííûé_ãðàäèåíò_290-3);}.cls-48{fill:url(#Áåçûìÿííûé_ãðàäèåíò_290-4);}.cls-49{fill:url(#Áåçûìÿííûé_ãðàäèåíò_16);}.cls-50{fill:url(#Áåçûìÿííûé_ãðàäèåíò_426-5);}</style><linearGradient id="Áåçûìÿííûé_ãðàäèåíò_270" x1="112.63" y1="292.42" x2="112.63" y2="0.4" gradientUnits="userSpaceOnUse"><stop offset="0" stop-color="#95e5e7"/><stop offset="1" stop-color="#ee8eff"/></linearGradient><linearGradient id="Áåçûìÿííûé_ãðàäèåíò_312" x1="130.98" y1="291.71" x2="130.98" y2="6.28" gradientUnits="userSpaceOnUse"><stop offset="0" stop-color="#9038c4"/><stop offset="0.26" stop-color="#6b45c4"/><stop offset="0.59" stop-color="#4252c4"/><stop offset="0.84" stop-color="#295bc4"/><stop offset="1" stop-color="#205ec4"/></linearGradient><linearGradient id="Áåçûìÿííûé_ãðàäèåíò_52" x1="128.02" y1="291.97" x2="122.81" y2="0.85" gradientUnits="userSpaceOnUse"><stop offset="0" stop-color="#dee1f1"/><stop offset="1" stop-color="#7286e2"/></linearGradient><linearGradient id="Áåçûìÿííûé_ãðàäèåíò_52-2" x1="88.19" y1="291.96" x2="88.19" y2="43.07" xlink:href="#Áåçûìÿííûé_ãðàäèåíò_52"/><linearGradient id="Áåçûìÿííûé_ãðàäèåíò_52-3" x1="109.17" y1="149.43" x2="148.18" y2="149.43" xlink:href="#Áåçûìÿííûé_ãðàäèåíò_52"/><linearGradient id="Áåçûìÿííûé_ãðàäèåíò_22" x1="113.91" y1="291.96" x2="113.91" y2="59.45" gradientUnits="userSpaceOnUse"><stop offset="0" stop-color="#7e0298"/><stop offset="0.19" stop-color="#7b0295"/><stop offset="0.35" stop-color="#73028a"/><stop offset="0.5" stop-color="#640279"/><stop offset="0.65" stop-color="#500160"/><stop offset="0.79" stop-color="#350140"/><stop offset="0.92" stop-color="#15001a"/><stop offset="1"/></linearGradient><linearGradient id="Áåçûìÿííûé_ãðàäèåíò_270-2" x1="160.67" y1="195.7" x2="227.67" y2="195.7" gradientTransform="translate(0 -65.43) scale(1 1.23)" xlink:href="#Áåçûìÿííûé_ãðàäèåíò_270"/><linearGradient id="Áåçûìÿííûé_ãðàäèåíò_312-2" x1="174.63" y1="228.41" x2="227.67" y2="228.41" gradientTransform="translate(0 -65.43) scale(1 1.23)" xlink:href="#Áåçûìÿííûé_ãðàäèåíò_312"/><linearGradient id="Áåçûìÿííûé_ãðàäèåíò_322" x1="160.67" y1="192.1" x2="227.67" y2="192.1" gradientUnits="userSpaceOnUse"><stop offset="0" stop-color="#ffb1ff"/><stop offset="1" stop-color="#6528ac"/></linearGradient><linearGradient id="Áåçûìÿííûé_ãðàäèåíò_426" x1="174.24" y1="192.04" x2="228.13" y2="192.04" gradientUnits="userSpaceOnUse"><stop offset="0.01" stop-color="#bdffff"/><stop offset="1" stop-color="#84deff"/></linearGradient><linearGradient id="Áåçûìÿííûé_ãðàäèåíò_215" x1="175.22" y1="172.66" x2="217.56" y2="172.66" gradientUnits="userSpaceOnUse"><stop offset="0" stop-color="#ffc"/><stop offset="1" stop-color="#aed4b3"/></linearGradient><linearGradient id="Áåçûìÿííûé_ãðàäèåíò_443" x1="155.03" y1="291.96" x2="155.03" y2="68.52" gradientTransform="matrix(-1, 0, 0, 1, 226.14, 0)" gradientUnits="userSpaceOnUse"><stop offset="0" stop-color="#9038c4"/><stop offset="0.34" stop-color="#5934b1"/><stop offset="0.63" stop-color="#3031a4"/><stop offset="0.86" stop-color="#17309b"/><stop offset="1" stop-color="#0e2f98"/></linearGradient><linearGradient id="Áåçûìÿííûé_ãðàäèåíò_339" x1="197.06" y1="291.96" x2="197.06" y2="68.52" gradientTransform="matrix(-1, 0, 0, 1, 226.14, 0)" gradientUnits="userSpaceOnUse"><stop offset="0" stop-color="#18a6c2"/><stop offset="0.99" stop-color="#2cfeff"/></linearGradient><linearGradient id="Áåçûìÿííûé_ãðàäèåíò_443-2" x1="197.42" y1="291.95" x2="197.42" y2="72.65" xlink:href="#Áåçûìÿííûé_ãðàäèåíò_443"/><radialGradient id="Áåçûìÿííûé_ãðàäèåíò_260" cx="191.55" cy="180.51" r="78.83" gradientTransform="matrix(-0.82, 0, 0, 1, 201.12, 0)" gradientUnits="userSpaceOnUse"><stop offset="0" stop-color="#1a98e0"/><stop offset="1" stop-color="#0083e0"/></radialGradient><radialGradient id="Áåçûìÿííûé_ãðàäèåíò_423" cx="205.78" cy="128.77" r="78.3" gradientTransform="matrix(-0.82, 0, 0, 1, 201.12, 0)" gradientUnits="userSpaceOnUse"><stop offset="0" stop-color="#33d5e0"/><stop offset="1" stop-color="#0083e0"/></radialGradient><linearGradient id="Áåçûìÿííûé_ãðàäèåíò_339-2" x1="42.85" y1="180.08" x2="111.09" y2="222.73" gradientTransform="matrix(1, 0, 0, 1, 0, 0)" xlink:href="#Áåçûìÿííûé_ãðàäèåíò_339"/><linearGradient id="Áåçûìÿííûé_ãðàäèåíò_312-3" x1="79.63" y1="291.96" x2="79.63" y2="110.2" xlink:href="#Áåçûìÿííûé_ãðàäèåíò_312"/><linearGradient id="Áåçûìÿííûé_ãðàäèåíò_155" x1="9.07" y1="131.66" x2="45.38" y2="131.66" gradientUnits="userSpaceOnUse"><stop offset="0" stop-color="#ffffbd"/><stop offset="0.18" stop-color="#c7efd0"/><stop offset="0.32" stop-color="#9fe4dd"/><stop offset="0.4" stop-color="#90e0e2"/><stop offset="0.53" stop-color="#9de5da"/><stop offset="0.82" stop-color="#b6eeca"/><stop offset="1" stop-color="#bff2c4"/></linearGradient><linearGradient id="Áåçûìÿííûé_ãðàäèåíò_155-2" x1="9.44" y1="170.81" x2="45.84" y2="170.81" xlink:href="#Áåçûìÿííûé_ãðàäèåíò_155"/><linearGradient id="Áåçûìÿííûé_ãðàäèåíò_155-3" x1="9.65" y1="213.88" x2="46.33" y2="213.88" xlink:href="#Áåçûìÿííûé_ãðàäèåíò_155"/><linearGradient id="Áåçûìÿííûé_ãðàäèåíò_215-2" x1="10.14" y1="128.89" x2="37.64" y2="128.89" xlink:href="#Áåçûìÿííûé_ãðàäèåíò_215"/><linearGradient id="Áåçûìÿííûé_ãðàäèåíò_215-3" x1="19.09" y1="167.36" x2="45.84" y2="167.36" xlink:href="#Áåçûìÿííûé_ãðàäèåíò_215"/><linearGradient id="Áåçûìÿííûé_ãðàäèåíò_215-4" x1="10.55" y1="194.26" x2="42.49" y2="194.26" xlink:href="#Áåçûìÿííûé_ãðàäèåíò_215"/><linearGradient id="Áåçûìÿííûé_ãðàäèåíò_215-5" x1="10.92" y1="252.95" x2="46.77" y2="252.95" xlink:href="#Áåçûìÿííûé_ãðàäèåíò_215"/><linearGradient id="Áåçûìÿííûé_ãðàäèåíò_52-4" x1="10.98" y1="256.07" x2="47.26" y2="256.07" xlink:href="#Áåçûìÿííûé_ãðàäèåíò_52"/><linearGradient id="Áåçûìÿííûé_ãðàäèåíò_259" x1="74.58" y1="291.96" x2="74.58" y2="194.26" gradientUnits="userSpaceOnUse"><stop offset="0" stop-color="#7e0298"/><stop offset="1"/></linearGradient><linearGradient id="Áåçûìÿííûé_ãðàäèåíò_359" x1="28.18" y1="160.92" x2="28.18" y2="68.52" gradientUnits="userSpaceOnUse"><stop offset="0"/><stop offset="0.99" stop-color="#1002ff"/></linearGradient><linearGradient id="Áåçûìÿííûé_ãðàäèåíò_426-2" x1="80.37" y1="39.47" x2="148.08" y2="39.47" xlink:href="#Áåçûìÿííûé_ãðàäèåíò_426"/><linearGradient id="Áåçûìÿííûé_ãðàäèåíò_426-3" x1="0" y1="174.98" x2="85.05" y2="174.98" xlink:href="#Áåçûìÿííûé_ãðàäèåíò_426"/><linearGradient id="Áåçûìÿííûé_ãðàäèåíò_426-4" x1="169.14" y1="124.37" x2="206.83" y2="124.37" xlink:href="#Áåçûìÿííûé_ãðàäèåíò_426"/><linearGradient id="Áåçûìÿííûé_ãðàäèåíò_405" x1="48.13" y1="291.97" x2="48.13" y2="163.43" gradientUnits="userSpaceOnUse"><stop offset="0" stop-color="#ff295f"/><stop offset="0.03" stop-color="#f4275b"/><stop offset="0.24" stop-color="#ab1c40"/><stop offset="0.44" stop-color="#6e1229"/><stop offset="0.62" stop-color="#3f0a17"/><stop offset="0.78" stop-color="#1c050b"/><stop offset="0.91" stop-color="#080103"/><stop offset="1"/></linearGradient><linearGradient id="Áåçûìÿííûé_ãðàäèåíò_334" x1="82.24" y1="239.79" x2="181.47" y2="239.79" gradientUnits="userSpaceOnUse"><stop offset="0.01" stop-color="#edffe7"/><stop offset="0.2" stop-color="#edefea"/><stop offset="0.58" stop-color="#eec4f4"/><stop offset="1" stop-color="#ee8eff"/></linearGradient><linearGradient id="Áåçûìÿííûé_ãðàäèåíò_342" x1="165.32" y1="293.85" x2="163.38" y2="185.34" gradientUnits="userSpaceOnUse"><stop offset="0" stop-color="#8668ed"/><stop offset="1" stop-color="#956df8"/></linearGradient><linearGradient id="Áåçûìÿííûé_ãðàäèåíò_280" x1="115.7" y1="293.97" x2="115.7" y2="193.56" gradientUnits="userSpaceOnUse"><stop offset="0" stop-color="#7260e7"/><stop offset="1" stop-color="#61b6f8"/></linearGradient><linearGradient id="Áåçûìÿííûé_ãðàäèåíò_312-4" x1="165.03" y1="293.7" x2="165.03" y2="193.56" xlink:href="#Áåçûìÿííûé_ãðàäèåíò_312"/><linearGradient id="Áåçûìÿííûé_ãðàäèåíò_334-2" x1="80.07" y1="269.71" x2="180.82" y2="269.71" xlink:href="#Áåçûìÿííûé_ãðàäèåíò_334"/><linearGradient id="Áåçûìÿííûé_ãðàäèåíò_342-2" x1="149.54" y1="269.3" x2="181.47" y2="269.3" xlink:href="#Áåçûìÿííûé_ãðàäèåíò_342"/><linearGradient id="Áåçûìÿííûé_ãðàäèåíò_290" x1="80.07" y1="273.84" x2="181.47" y2="273.84" gradientUnits="userSpaceOnUse"><stop offset="0" stop-color="#551890"/><stop offset="0.41" stop-color="#3a3cab"/><stop offset="0.78" stop-color="#2755bd"/><stop offset="1" stop-color="#205ec4"/></linearGradient><linearGradient id="Áåçûìÿííûé_ãðàäèåíò_290-2" x1="82.16" y1="233.85" x2="180.82" y2="233.85" xlink:href="#Áåçûìÿííûé_ãðàäèåíò_290"/><linearGradient id="Áåçûìÿííûé_ãðàäèåíò_334-3" x1="82.16" y1="229.55" x2="179.61" y2="229.55" xlink:href="#Áåçûìÿííûé_ãðàäèåíò_334"/><linearGradient id="Áåçûìÿííûé_ãðàäèåíò_342-3" x1="149.16" y1="228.67" x2="180.82" y2="228.67" xlink:href="#Áåçûìÿííûé_ãðàäèåíò_342"/><linearGradient id="Áåçûìÿííûé_ãðàäèåíò_290-3" x1="149.16" y1="273.54" x2="181.47" y2="273.54" xlink:href="#Áåçûìÿííûé_ãðàäèåíò_290"/><linearGradient id="Áåçûìÿííûé_ãðàäèåíò_290-4" x1="148.52" y1="233.07" x2="180.82" y2="233.07" xlink:href="#Áåçûìÿííûé_ãðàäèåíò_290"/><linearGradient id="Áåçûìÿííûé_ãðàäèåíò_16" x1="131.86" y1="293.97" x2="131.86" y2="246.26" gradientUnits="userSpaceOnUse"><stop offset="0.01" stop-color="#1002ff"/><stop offset="1"/></linearGradient><linearGradient id="Áåçûìÿííûé_ãðàäèåíò_426-5" x1="79.64" y1="239.58" x2="148.57" y2="239.58" xlink:href="#Áåçûìÿííûé_ãðàäèåíò_426"/></defs><g class="cls-1"><g id="Layer_2" data-name="Layer 2"><g id="Layer_1-2" data-name="Layer 1"><polygon class="cls-2" points="71.11 291.96 82.12 49.5 125.46 7.72 147.96 0.4 154.15 292.43 71.11 291.96"/><polygon class="cls-3" points="148.08 6.28 110.02 43.07 105.27 291.58 156.7 291.71 148.08 6.28"/><polygon class="cls-4" points="147.96 0.4 105.27 43.07 102.85 292.09 109.17 292.31 110.02 43.07 148.08 6.28 147.96 0.4"/><polygon class="cls-5" points="82.12 49.5 105.27 43.07 100.54 291.96 71.11 291.96 82.12 49.5"/><g class="cls-6"><rect class="cls-7" x="115.52" y="37.57" width="0.37" height="255.02"/><rect class="cls-7" x="122.09" y="31.57" width="0.37" height="253.94"/><rect class="cls-7" x="127.61" y="25.89" width="0.37" height="254.79"/><rect class="cls-7" x="132.78" y="21.46" width="0.37" height="253.94"/><rect class="cls-7" x="139.71" y="15.48" width="0.37" height="255.01" transform="translate(-1.49 1.47) rotate(-0.6)"/><rect class="cls-7" x="145.92" y="11.15" width="0.37" height="252.09" transform="matrix(1, -0.02, 0.02, 1, -2.86, 3.12)"/><polygon class="cls-7" points="149.06 41.45 124.31 29.34 124.47 29.01 149.22 41.12 149.06 41.45"/><polygon class="cls-7" points="148.43 27.28 134.97 19.01 135.16 18.7 148.62 26.96 148.43 27.28"/><polygon class="cls-7" points="149.14 59.62 109.94 43.23 110.09 42.9 149.28 59.28 149.14 59.62"/><polygon class="cls-7" points="150.2 79.09 109.94 62.26 110.09 61.92 150.34 78.75 150.2 79.09"/><polygon class="cls-7" points="150.2 98.56 109.94 81.72 110.09 81.39 150.34 98.22 150.2 98.56"/><polygon class="cls-7" points="151.32 115.85 109.95 101.2 110.08 100.85 151.44 115.51 151.32 115.85"/><polygon class="cls-7" points="151.96 134.91 109.96 120.66 110.07 120.32 152.07 134.56 151.96 134.91"/><polygon class="cls-7" points="152.44 152.49 109.96 140.13 110.07 139.78 152.54 152.14 152.44 152.49"/><polygon class="cls-7" points="153.04 169.43 109.97 159.6 110.06 159.25 153.12 169.07 153.04 169.43"/></g><polygon class="cls-8" points="148.18 11.18 115.15 45.21 115.7 292.59 109.17 292.31 110.02 43.07 148.08 6.28 148.18 11.18"/><polygon class="cls-9" points="156.7 291.71 149.21 59.45 81.69 68.98 71.11 291.96 156.7 291.71"/><polygon class="cls-10" points="171.92 292.59 160.66 230.71 190.56 91.6 206.46 59.45 227.67 140.18 225.65 292.5 171.92 292.59"/><polygon class="cls-11" points="174.63 292.59 227.67 140.18 225.65 292.5 174.63 292.59"/><polygon class="cls-12" points="190.56 91.6 227.67 140.18 174.63 292.59 171.92 292.59 160.66 230.71 190.56 91.6"/><polygon class="cls-13" points="175.03 292.73 174.24 292.45 227.2 140.25 190.23 91.86 190.9 91.35 228.13 140.1 228.06 140.32 175.03 292.73"/><g class="cls-6"><polygon class="cls-7" points="225.48 292.5 222.54 154.42 222.88 154.41 225.82 292.5 225.48 292.5"/><polygon class="cls-7" points="224.01 292.51 217.34 169.44 185.35 115.25 185.64 115.08 217.67 169.34 217.67 169.38 224.35 292.49 224.01 292.51"/><polygon class="cls-7" points="222.55 292.52 209.81 191.07 182.3 129.43 182.6 129.29 210.14 191 222.88 292.48 222.55 292.52"/><polygon class="cls-7" points="219.99 292.54 202.44 212.25 178.99 145.96 179.31 145.85 202.76 212.16 220.32 292.46 219.99 292.54"/><polygon class="cls-7" points="218.62 292.56 195.98 230.85 175.06 163.06 175.38 162.96 196.3 230.74 218.94 292.44 218.62 292.56"/><polygon class="cls-7" points="217.89 292.68 190.28 247.29 170.23 187.36 170.55 187.26 190.58 247.16 218.18 292.5 217.89 292.68"/><polygon class="cls-7" points="216.23 292.63 184.36 264.31 184.34 264.27 165.9 205.67 166.22 205.57 184.65 264.13 216.46 292.38 216.23 292.63"/><polygon class="cls-7" points="214.31 292.66 179.01 281.43 178.99 281.34 163.18 218.3 163.51 218.21 179.29 281.17 214.41 292.34 214.31 292.66"/><polygon class="cls-7" points="223.05 153.12 188.94 98.61 189.22 98.43 223.34 152.95 223.05 153.12"/><polygon class="cls-7" points="162.08 237.63 161.75 237.55 194 96.28 205.94 60.13 206.26 60.24 194.32 96.37 162.08 237.63"/><polygon class="cls-7" points="164.11 248.81 163.79 248.73 199.49 104.36 206.81 61.4 207.14 61.45 199.82 104.42 164.11 248.81"/><polygon class="cls-7" points="166.16 260.1 165.84 260.01 206.81 113.07 207.28 63.22 207.62 63.22 207.14 113.14 166.16 260.1"/><polygon class="cls-7" points="167.51 270.53 167.19 270.43 212.79 120.91 208.54 68.03 208.87 68 213.13 120.95 213.12 120.98 167.51 270.53"/><polygon class="cls-7" points="169.67 279.4 169.35 279.29 221 131.66 209.95 73.41 210.28 73.35 221.34 131.69 221.33 131.73 169.67 279.4"/></g><polygon class="cls-14" points="175.22 163.01 195.71 232.02 217.56 167.61 185.9 113.3 175.22 163.01"/><polygon class="cls-15" points="87.54 291.96 84.89 80.99 54.93 68.52 54.68 291.96 87.54 291.96"/><polygon class="cls-16" points="1.53 291.96 57.73 291.96 54.93 68.52 47.69 70.28 47.67 72.65 15.29 81.56 6.61 80.49 0.42 81.98 1.53 291.96"/><polygon class="cls-17" points="8.84 291.95 50.82 291.95 47.67 72.65 15.29 81.56 6.61 80.49 8.84 291.95"/><polygon class="cls-18" points="44.7 70.49 41.44 69.08 43.38 291.95 47.26 291.95 44.7 70.49"/><polygon class="cls-19" points="41.44 69.08 9.81 79.08 11.18 291.95 43.38 291.95 41.44 69.08"/><polygon class="cls-20" points="63.57 291.96 85.69 111.51 89.32 110.2 67.83 291.96 63.57 291.96"/><polygon class="cls-21" points="89.32 110.2 91.43 291.96 67.83 291.96 89.32 110.2"/><g class="cls-6"><rect class="cls-7" x="14.07" y="77.96" width="0.42" height="213.99" transform="translate(-1.6 0.13) rotate(-0.5)"/><rect class="cls-7" x="19.12" y="76.55" width="0.42" height="215.41" transform="translate(-2.63 0.29) rotate(-0.82)"/><rect class="cls-7" x="25.7" y="74.4" width="0.42" height="217.55" transform="translate(-2.22 0.33) rotate(-0.69)"/><rect class="cls-7" x="31.63" y="72.64" width="0.42" height="219.32" transform="translate(-2.77 0.51) rotate(-0.87)"/><rect class="cls-7" x="37.43" y="70.28" width="0.42" height="221.2"/></g><polygon class="cls-22" points="9.07 134.42 9.07 135.42 41.44 129.18 45.38 129.54 45.37 128.63 41.44 127.9 9.07 134.42"/><polygon class="cls-23" points="9.44 172.77 9.44 173.77 41.44 169.13 45.84 169.52 45.84 168.66 41.44 167.85 9.44 172.77"/><polygon class="cls-24" points="9.65 215.14 9.65 216.13 42.39 212.9 46.33 213.26 46.32 212.34 42.39 211.62 9.65 215.14"/><polygon class="cls-25" points="10.14 129.47 37.64 123.57 37.64 128.66 10.17 134.2 10.14 129.47"/><polygon class="cls-26" points="45.84 164.69 42.26 163.43 19.09 167.27 19.09 171.29 42.3 168 45.84 168.66 45.84 164.69"/><polygon class="cls-27" points="10.55 193.71 42.49 189.2 42.49 195.13 10.59 199.31 10.55 193.71"/><polygon class="cls-28" points="43.38 249.09 10.92 250.99 10.96 256.81 43.06 255.17 46.77 255.45 46.77 249.09 43.38 249.09"/><polygon class="cls-29" points="10.98 261.31 26.6 259.88 26.52 222.43 42.76 220.19 46.33 220.19 47.26 291.95 11.18 291.95 10.98 261.31"/><polygon class="cls-30" points="79.63 291.96 79.63 233.69 82.47 233.41 83.1 223.8 86.66 221.6 86.66 183.18 90.14 180.88 91.43 291.96 79.63 291.96"/><polygon class="cls-31" points="91.43 291.96 90.39 201.64 57.73 194.26 57.73 291.96 91.43 291.96"/><polygon class="cls-32" points="0.42 81.98 1.02 160.92 55.95 149.63 54.93 68.52 47.69 70.28 47.67 72.65 44.74 73.5 44.7 70.49 41.44 69.08 9.81 79.08 9.81 80.89 6.61 80.49 0.42 81.98"/><polygon class="cls-33" points="81.2 78.94 80.37 78.9 81.71 49.31 81.83 49.2 125.24 7.36 147.83 0 148.09 0.79 125.68 8.09 82.53 49.69 81.2 78.94"/><polygon class="cls-34" points="1.06 281.88 0 81.65 6.59 80.07 9.39 80.41 9.39 78.78 41.46 68.64 45.12 70.21 45.15 72.95 47.26 72.33 47.28 69.95 54.97 68.08 55.09 68.14 85.05 80.6 84.73 81.37 54.9 68.96 48.1 70.61 48.09 72.96 44.33 74.06 44.29 70.76 41.42 69.53 10.23 79.39 10.23 81.36 6.64 80.92 0.84 82.31 1.89 281.88 1.06 281.88"/><polygon class="cls-35" points="169.96 189.46 169.14 189.29 190.17 91.47 190.19 91.42 206.08 59.27 206.83 59.64 190.96 91.74 169.96 189.46"/><rect class="cls-36" x="1.18" y="163.43" width="93.9" height="128.54"/><polygon class="cls-37" points="85.01 193.4 148.52 185.6 178.2 190.93 181.47 293.56 82.24 293.97 85.01 193.4"/><polygon class="cls-38" points="149.16 293.7 148.52 185.6 178.2 190.93 181.47 293.56 149.16 293.7"/><polygon class="cls-39" points="82.24 293.97 84.78 199.13 148.58 193.56 149.16 293.7 82.24 293.97"/><polygon class="cls-40" points="148.58 193.56 178.47 196.07 181.47 293.56 149.16 293.7 148.58 193.56"/><g class="cls-6"><rect class="cls-7" x="42.63" y="246.08" width="95.37" height="0.37" transform="matrix(0.02, -1, 1, 0.02, -157.36, 332.61)"/><rect class="cls-7" x="97.54" y="198.18" width="0.37" height="95.38"/><rect class="cls-7" x="104.33" y="197.4" width="0.37" height="96.16"/><polygon class="cls-7" points="111.68 293.56 111.31 293.56 112 196.73 112.37 196.74 111.68 293.56"/><rect class="cls-7" x="119.56" y="196.07" width="0.37" height="97.9"/><rect class="cls-7" x="127.61" y="195.37" width="0.37" height="98.32"/><rect class="cls-7" x="137.18" y="194.54" width="0.37" height="99.03"/><polygon class="cls-7" points="155.83 293.56 155.14 194.54 155.5 194.53 156.2 293.56 155.83 293.56"/><rect class="cls-7" x="162.01" y="195.01" width="0.37" height="98.56" transform="matrix(1, -0.02, 0.02, 1, -3.85, 2.6)"/><rect class="cls-7" x="168.41" y="195.01" width="0.37" height="98.56" transform="translate(-3.85 2.7) rotate(-0.91)"/><rect class="cls-7" x="174.29" y="195.75" width="0.37" height="98.56" transform="translate(-3.86 2.79) rotate(-0.91)"/></g><polygon class="cls-41" points="80.25 267.42 148.76 265.19 180.63 266.25 180.82 273.39 149.16 272.84 80.07 274.22 80.25 267.42"/><polygon class="cls-42" points="149.54 265.22 149.75 272.85 181.47 273.39 181.47 266.27 149.54 265.22"/><polygon class="cls-43" points="80.07 274.22 82.77 274.85 149.16 273.76 180.86 273.76 181.47 273.39 149.16 272.84 80.07 274.22"/><polygon class="cls-44" points="82.16 234.78 84.09 235.69 148.87 233.47 179.66 234.11 180.82 233.04 149.16 232.02 82.16 234.78"/><polygon class="cls-45" points="82.32 228.71 149.55 224.32 179.41 226.58 179.6 233.04 149.16 232.02 82.16 234.78 82.32 228.71"/><polygon class="cls-46" points="149.16 224.29 149.16 232.02 180.82 233.04 180.82 226.68 149.16 224.29"/><polygon class="cls-47" points="149.16 273.76 149.75 272.85 181.47 273.39 180.88 274.22 149.16 273.76"/><polygon class="cls-48" points="148.52 233.48 149.16 232.02 180.82 233.04 179.66 234.11 148.52 233.48"/><polygon class="cls-49" points="82.24 293.97 83.45 248.75 179.6 246.26 181.47 293.56 82.24 293.97"/><polygon class="cls-50" points="82.66 293.98 81.82 293.96 82.35 275.18 79.64 274.55 79.85 267 82.55 267 83.67 235.95 81.73 235.04 81.92 228.29 83.69 228.29 84.61 193.03 148.47 185.19 148.57 186.02 85.42 193.77 84.5 229.13 82.73 229.13 82.58 234.52 84.52 235.43 83.35 267.84 80.66 267.83 80.49 273.89 83.2 274.52 82.66 293.98"/></g></g></g></svg>